<svg width="14" height="22" viewBox="0 0 14 22" fill="none" xmlns="http://www.w3.org/2000/svg">
<path d="M13.927 19.6543L13.9017 6.92641C13.9007 6.41729 13.7017 5.90857 13.312 5.52044L8.35238 0.580554C7.57301 -0.195713 6.30022 -0.193179 5.52396 0.586185L0.584073 5.54578C0.195939 5.93546 -0.00103696 6.44497 4.70021e-06 6.96823L0.0253426 19.6961C0.0263561 20.2052 0.225359 20.714 0.615041 21.1021C1.00472 21.4902 1.51423 21.6872 2.03041 21.6791L11.9299 21.6594C12.4461 21.6654 12.9548 21.4664 13.3429 21.0768C13.7311 20.6871 13.928 20.1634 13.927 19.6543ZM5.88666 5.18167C5.29859 4.59594 5.29671 3.64842 5.88244 3.06035C6.46817 2.47228 7.41569 2.4704 8.00375 3.05613C8.59182 3.64186 8.5937 4.58938 8.00798 5.17744C7.42225 5.76551 6.47473 5.7674 5.88666 5.18167ZM8.38974 19.3471L2.35106 19.3592L2.33904 13.3205C2.34483 12.677 2.58398 12.0401 3.07091 11.5512C4.04477 10.5735 5.62869 10.5703 6.60643 11.5442C7.09531 12.0311 7.34408 12.6741 7.33829 13.3176L7.3474 14.3429L8.37977 14.3408C9.01617 14.3396 9.66012 14.5858 10.149 15.0727C11.1267 16.0466 11.1299 17.6305 10.156 18.6082C9.66911 19.0971 9.02613 19.3459 8.38974 19.3471Z" fill="#DAB524"/>
</svg>
